/* XPM */
static const char *snow_l[] = {
/* columns rows colors chars-per-pixel */
"22 21 15 1",
"  c #c5e1f2",
". c #cce4f4",
"X c #cfe8f6",
"o c #d1e6f5",
"O c #d4e8f6",
"+ c #daebf6",
"@ c #dcecf8",
"# c #e0eef8",
"$ c #e4f0f9",
"% c #ebf4fa",
"& c #f4f4f4",
"* c #f0f7fb",
"= c #f4f9fc",
"A c #fefefe",
"- c none",
/* pixels */
"-----=--=-==----------",
"-------=======-=------",
"-----====*%%%%====----",
"--=-==%%$@@+@$$%==-=--",
"----==$@o. . X+$%==---",
"---&*$+o  ..  .o#%===-",
"--=*%+. o#%$$O..O$%-=-",
"--=*$O .%AAA==%oo#%=-=",
"--=%@o.$=AAAAAA%XO$=--",
"-==%@.O=AAAAA=A*OO$%==",
"--=%+.@=AAAAAAA&+O#=--",
"===%+o+=AAAAAAA$oO$=-=",
"--=*#OO%=AAAAA=@.O%==-",
"-===$+.+*=AA=%+.o#%=--",
"---=*$O.O#$#+o .O%%==-",
"---==%#+o .   o+$==---",
"--=-==%$+OOoo+#%%=----",
"-----==*$$$#$%*==-----",
"-----=-==========-----",
"-------=-=====-=------",
"-----------=----------"
};
